<svg width="17" height="17" viewBox="0 0 17 17" fill="none" xmlns="http://www.w3.org/2000/svg">
<path d="M14.9375 11.1586C13.9432 11.1586 12.9669 10.9958 12.0417 10.6757C11.5884 10.5139 11.0311 10.6624 10.7544 10.9598L8.92831 12.4028C6.81055 11.2195 5.50606 9.85442 4.39103 7.65429L5.72898 5.79262C6.07659 5.42924 6.20128 4.89844 6.05189 4.40039C5.74484 3.42687 5.58887 2.40541 5.58887 1.36416C5.58891 0.611956 5.00429 0 4.28572 0H1.30319C0.584622 0 0 0.611956 0 1.36412C0 9.98586 6.70089 17 14.9375 17C15.6561 17 16.2407 16.388 16.2407 15.6359V12.5226C16.2407 11.7705 15.6561 11.1586 14.9375 11.1586Z" fill="#562E95"/>
</svg>
