<svg width="26" height="27" viewBox="0 0 26 27" fill="none" xmlns="http://www.w3.org/2000/svg">
<path d="M22.1924 22.5772C24.6477 20.1218 26 16.8571 26 13.3848C26 9.9124 24.6478 6.64772 22.1924 4.19237C19.737 1.73701 16.4724 0.384765 13 0.384765C9.52744 0.384765 6.26295 1.73701 3.8076 4.19237C1.35225 6.64772 -4.16466e-07 9.9124 -5.68248e-07 13.3848C-7.2003e-07 16.8571 1.35225 20.1218 3.8076 22.5772C6.26295 25.0325 9.52743 26.3848 13 26.3848C16.4724 26.3848 19.737 25.0325 22.1924 22.5772ZM9.17276 19.0076C8.67685 19.5033 7.87308 19.5033 7.37737 19.0076C7.12941 18.7596 7.00543 18.4347 7.00543 18.1098C7.00543 17.7849 7.12941 17.46 7.37737 17.212L11.2046 13.3848L7.37717 9.55752C7.12941 9.30957 7.00543 8.98465 7.00543 8.65973C7.00543 8.33481 7.12941 8.00989 7.37717 7.76193C7.87308 7.26622 8.67685 7.26622 9.17256 7.76193L13 11.5894L16.8272 7.76193C17.3232 7.26622 18.1269 7.26622 18.6226 7.76193C19.1185 8.25784 19.1185 9.06161 18.6226 9.55733L14.7954 13.3848L18.6226 17.212C19.1183 17.7079 19.1185 18.5117 18.6226 19.0074C18.1269 19.5033 17.3231 19.5033 16.8272 19.0074L13 15.1802L9.17276 19.0076Z" fill="#562E95"/>
</svg>
