<svg width="40" height="40" viewBox="0 0 40 40" fill="none" xmlns="http://www.w3.org/2000/svg">
<path d="M20 40C25.3043 40 30.3914 37.8929 34.1421 34.1421C37.8929 30.3914 40 25.3043 40 20C40 14.6957 37.8929 9.60859 34.1421 5.85786C30.3914 2.10714 25.3043 0 20 0C14.6957 0 9.60859 2.10714 5.85786 5.85786C2.10714 9.60859 0 14.6957 0 20C0 25.3043 2.10714 30.3914 5.85786 34.1421C9.60859 37.8929 14.6957 40 20 40ZM12.925 9.85C13.2715 9.78885 13.6231 9.76094 13.975 9.76667C15.975 9.76667 24.0583 9.76667 26.1 9.76667C26.9915 9.731 27.8689 9.99822 28.5891 10.5248C29.3094 11.0514 29.8302 11.8063 30.0667 12.6667C30.1736 13.0718 30.2268 13.4893 30.225 13.9083C30.225 17.975 30.225 22.0417 30.225 26.1083C30.2631 27.0424 29.9694 27.9597 29.3959 28.698C28.8224 29.4362 28.0061 29.9476 27.0917 30.1417C26.7572 30.2097 26.4162 30.2405 26.075 30.2333H13.925C12.9834 30.2771 12.057 29.9841 11.3119 29.4069C10.5667 28.8297 10.0514 28.0059 9.85833 27.0833C9.79684 26.7593 9.76892 26.4298 9.775 26.1C9.775 22.05 9.775 18 9.775 13.95C9.72482 13.0032 10.0147 12.0697 10.5923 11.3179C11.1699 10.5661 11.9973 10.0454 12.925 9.85Z" fill="url(#paint0_linear)"/>
<path d="M20.0333 23.5919C20.7451 23.5869 21.4393 23.3705 22.0278 22.9702C22.6163 22.5699 23.0727 22.0038 23.3389 21.3437C23.6051 20.6836 23.6691 19.9592 23.523 19.2627C23.3768 18.5661 23.0269 17.9286 22.5178 17.4312C22.0087 16.9339 21.3632 16.5989 20.6634 16.469C19.9636 16.3391 19.241 16.4201 18.5873 16.7016C17.9336 16.9831 17.3782 17.4525 16.9918 18.0502C16.6053 18.6479 16.4051 19.3469 16.4167 20.0586C16.432 21.0054 16.8206 21.9078 17.4979 22.5695C18.1753 23.2312 19.0865 23.5987 20.0333 23.5919Z" fill="url(#paint1_linear)"/>
<path d="M27.8583 12.1416H24.45V15.5749H27.8583V12.1416Z" fill="url(#paint2_linear)"/>
<path d="M13.9166 28.2333H26.0833C26.3734 28.2631 26.6664 28.2281 26.9413 28.1307C27.2161 28.0333 27.4659 27.876 27.6725 27.6703C27.8791 27.4645 28.0373 27.2153 28.1357 26.9408C28.2342 26.6664 28.2704 26.3734 28.2416 26.0833V18.2749C28.2416 18.1583 28.2416 18.0333 28.2416 17.9083H25.2333C26.0666 20.6166 25.5 22.9083 23.1583 24.5749C22.3213 25.2212 21.3046 25.5922 20.248 25.637C19.1915 25.6818 18.147 25.3981 17.2583 24.8249C14.5916 23.2333 13.925 20.8083 14.7583 17.8916H11.775V18.2416C11.775 20.8583 11.775 23.4666 11.775 26.0833C11.7451 26.3722 11.7799 26.6642 11.8769 26.9381C11.9738 27.2119 12.1305 27.4608 12.3355 27.6666C12.5405 27.8724 12.7888 28.03 13.0622 28.1281C13.3357 28.2261 13.6276 28.262 13.9166 28.2333Z" fill="url(#paint3_linear)"/>
<defs>
<linearGradient id="paint0_linear" x1="0.234545" y1="26.3265" x2="39.8056" y2="18.9564" gradientUnits="userSpaceOnUse">
<stop stop-color="#FCE556"/>
<stop offset="0.46875" stop-color="#ECB853"/>
<stop offset="1" stop-color="#FCE556"/>
</linearGradient>
<linearGradient id="paint1_linear" x1="16.4583" y1="21.1365" x2="23.5646" y2="19.8129" gradientUnits="userSpaceOnUse">
<stop stop-color="#FCE556"/>
<stop offset="0.46875" stop-color="#ECB853"/>
<stop offset="1" stop-color="#FCE556"/>
</linearGradient>
<linearGradient id="paint2_linear" x1="24.47" y1="14.4013" x2="27.8434" y2="13.7776" gradientUnits="userSpaceOnUse">
<stop stop-color="#FCE556"/>
<stop offset="0.46875" stop-color="#ECB853"/>
<stop offset="1" stop-color="#FCE556"/>
</linearGradient>
<linearGradient id="paint3_linear" x1="11.8613" y1="24.7049" x2="27.3721" y2="20.104" gradientUnits="userSpaceOnUse">
<stop stop-color="#FCE556"/>
<stop offset="0.46875" stop-color="#ECB853"/>
<stop offset="1" stop-color="#FCE556"/>
</linearGradient>
</defs>
</svg>
