<?xml version="1.0" encoding="UTF-8"?>
<!DOCTYPE svg PUBLIC "-//W3C//DTD SVG 1.1//EN" "http://www.w3.org/Graphics/SVG/1.1/DTD/svg11.dtd">
<!-- Creator: CorelDRAW 2019 (64-Bit) -->
<svg xmlns="http://www.w3.org/2000/svg" xml:space="preserve" width="38.3595mm" height="23.0293mm" version="1.1" style="shape-rendering:geometricPrecision; text-rendering:geometricPrecision; image-rendering:optimizeQuality; fill-rule:evenodd; clip-rule:evenodd"
viewBox="0 0 5230.64 3140.24"
 xmlns:xlink="http://www.w3.org/1999/xlink">
 <defs>
  <style type="text/css">
   <![CDATA[
    .fil0 {fill:#562E95}
   ]]>
  </style>
 </defs>
 <g id="Layer_x0020_1">
  <metadata id="CorelCorpID_0Corel-Layer"/>
  <path class="fil0" d="M48.46 0l350.44 0c26.66,0 48.46,21.8 48.46,48.46l0 1055.54 368 0 0 -1049.66c0,-29.89 24.45,-54.34 54.34,-54.34l338.69 0c29.89,0 54.34,24.45 54.34,54.34l0 1049.66 147.92 0 0 -1047.18c0,-28.17 34.36,-56.82 62.53,-56.82l325.39 0 59.44 0 445.66 0c200.42,0 364.39,163.97 364.39,364.39l0 10.85c0,200.42 -163.97,364.39 -364.39,364.39l32.48 0c216.29,0 393.24,176.95 393.24,393.24l0 0c0,216.29 -215.96,393.24 -529.6,393.24l-341.78 0 -127.99 0 -167.84 0 -151.53 0 -202.26 0 -338.69 0 -470.8 0 -103.06 0 -247.38 0c-26.66,0 -48.46,-21.8 -48.46,-48.46l0 -1429.2c0,-26.66 21.8,-48.46 48.46,-48.46zm4759.44 2302.48l0 -674.5 75.15 0 0 64.03c17.7,-24.74 37.77,-43.35 60.13,-55.74 22.24,-12.33 49.31,-18.63 81.09,-18.63 41.66,0 78.24,10.7 110.07,32.1 31.73,21.34 55.84,51.48 72.02,90.34 16.21,38.94 24.27,81.57 24.27,128.07 0,49.63 -8.9,94.44 -26.78,134.34 -17.81,39.78 -43.83,70.32 -77.97,91.59 -33.94,21.15 -69.83,31.79 -107.41,31.79 -27.54,0 -52.28,-5.84 -74.06,-17.39 -21.89,-11.6 -39.76,-26.14 -53.85,-43.84l0 237.84 -82.67 0zm75.15 -427.76c0,62.48 12.64,108.7 37.89,138.57 25.31,29.93 56.06,44.94 92.07,44.94 36.63,0 67.91,-15.54 93.94,-46.51 26.09,-31.02 39.13,-78.91 39.13,-143.89 0,-62 -12.68,-108.35 -38.19,-139.18 -25.51,-30.84 -55.89,-46.2 -91.28,-46.2 -35.07,0 -66.08,16.46 -93.01,49.17 -27.07,32.88 -40.55,80.48 -40.55,143.09zm-538.12 428.22l-9.4 -76.4c18.16,4.85 33.83,7.36 47.29,7.36 18.48,0 33.18,-3.18 44.15,-9.25 11.09,-6.14 20.28,-14.67 27.24,-25.68 5.24,-8.25 13.66,-28.81 25.21,-61.69 1.58,-4.53 3.91,-11.28 7.35,-20.19l-185.07 -489.12 88.31 0 101.78 281.5c12.91,35.68 25.05,73.13 35.53,112.58 9.56,-37.1 20.81,-73.74 33.98,-109.75l103.96 -284.32 82.51 0 -184.29 496c-19.83,53.38 -35.45,90 -46.5,110.22 -14.78,27.05 -31.61,47.02 -50.56,59.66 -19.08,12.71 -41.81,18.95 -68.11,18.95 -15.97,0 -33.82,-3.3 -53.4,-9.87zm-480.19 -674.96l394.55 0 0 68.57 -155.94 0 0 418.97 -82.67 0 0 -418.97 -155.94 0 0 -68.57zm-455.14 0.57l313.88 0c38.22,0 69.47,31.25 69.47,69.47l0 257.89c0,38.22 -31.25,69.47 -69.47,69.47l-313.88 0 0 -396.84zm-587.16 396.84l0 1114.84 487.06 0 0 -1114.84 0 -119.04 0 -277.8 -656.55 0 -205.72 0 -793.65 0c-38.7,0 -70.35,31.62 -70.35,70.37l0 528.51 0 281.43 0 279.59 0 281.4 0 0.03 0.03 1.79 0 0.03 0.07 1.77 0 0.01 0.11 1.77 0 0.01 0.16 1.76 0 0.03 0.2 1.75 0 0.01 0.25 1.73 0 0.01 0.29 1.72 0 0.01 0.33 1.72 0.38 1.7 0 0.01 0.41 1.68 0 0.01 0.46 1.66 0.49 1.66 0.53 1.64 0.57 1.62 0.61 1.61 0.65 1.58 0.68 1.57 0.01 0 0.72 1.55 0.75 1.53 0.01 0 0.79 1.5 0.83 1.49 0.86 1.46 0.01 0 0.9 1.45 0.93 1.42 0.97 1.39 1 1.36 0.01 0 1.02 1.34 0 0.01 1.06 1.31 1.09 1.3 1.12 1.25 0 0.01 1.16 1.23 0 0.01 1.17 1.2 0.01 0 1.2 1.17 0 0.01 1.24 1.15 2.55 2.21 0 0.01 1.32 1.05 0 0.01 1.34 1.02 0.01 0 1.35 1 0.01 0 1.38 0.97 0.01 0 2.85 1.84 1.46 0.86 0.01 0 1.47 0.83 1.5 0.8 0.01 0 3.07 1.49 1.57 0.68 1.58 0.65 1.61 0.61 1.62 0.57 1.64 0.53 1.66 0.49 0 0.01 1.66 0.45 0.01 0 1.68 0.41 0.01 0 1.7 0.38 1.72 0.33 1.73 0.29 1.75 0.25 1.76 0.2 0.01 0 1.77 0.16 1.79 0.11 1.79 0.07 1.81 0.03 999.37 0 1.81 -0.03 1.79 -0.07 1.79 -0.11 1.77 -0.16 0.01 0 1.76 -0.2 1.75 -0.25 1.73 -0.29 1.72 -0.33 1.7 -0.38 0.01 0 1.68 -0.41 0.01 0 1.66 -0.45 0 -0.01 1.66 -0.49 1.64 -0.53 1.62 -0.57 1.61 -0.61 1.58 -0.65 1.57 -0.68 0 -0.01c1.55,-0.71 3.1,-1.46 4.58,-2.28l1.47 -0.83 0.01 0 1.46 -0.86 0 -0.01 2.85 -1.83 0.01 0 1.38 -0.97 0.01 0 2.7 -2.02 0 -0.01 1.32 -1.05 0 -0.01 2.55 -2.21 1.24 -1.15 0 -0.01 2.39 -2.37 0 -0.01 1.16 -1.23 0 -0.01 1.12 -1.25 0 -0.01 1.09 -1.28 1.06 -1.31 0 -0.01 2.03 -2.7 0 -0.01 0.97 -1.38 0 -0.01 0.93 -1.4 0 -0.01 0.9 -1.43 0.01 0 0.86 -1.46 0 -0.01 0.83 -1.47 1.55 -3.03 0 -0.01 0.72 -1.54 0.01 0 0.68 -1.57 0.65 -1.58 0.61 -1.61 0.57 -1.62 0.53 -1.64 0.49 -1.66 0.46 -1.68 0.41 -1.69 0.38 -1.7 0.33 -1.72 0 -0.01 0.29 -1.72 0 -0.01 0.25 -1.73 0 -0.01 0.2 -1.76 0 -0.01 0.16 -1.76 0 -0.01 0.11 -1.77 0 -0.01 0.07 -1.77 0 -0.03 0.03 -1.79 0 -0.03 0 -281.4 0 -70.35 -70.35 0 -560.17 0c-23.82,0 -43.29,-19.47 -43.29,-43.29l0 -95.6 467.11 0c38.62,0 70.35,-31.73 70.35,-70.35l0 -281.43c0,-38.62 -31.65,-70.35 -70.35,-70.35l-467.11 0 0 -88.4c0,-23.82 19.47,-43.29 43.29,-43.29l354.45 0 276.07 0 99.15 0zm-1361.28 -396.84l0 238.65c0,29.89 -24.45,54.34 -54.34,54.34l-338.69 0c-29.89,0 -54.34,-24.45 -54.34,-54.34l0 -238.65 447.36 0zm429.15 -1278.99l155.5 0c61.7,0 112.18,50.48 112.18,112.18l0 3.34c0,61.7 -50.48,112.18 -112.18,112.18l-153.28 0c-18.94,0 -34.43,-15.49 -34.43,-34.43l0 -161.07c0,-17.73 14.48,-32.21 32.21,-32.21zm0 573.65l199.7 0c61.7,0 112.18,50.49 112.18,112.18l0 3.34c0,61.69 -50.49,112.18 -112.18,112.18l-197.47 0c-18.93,0 -34.43,-15.49 -34.43,-34.43l0 -161.07c0,-17.73 14.48,-32.21 32.21,-32.21z"/>
 </g>
</svg>
