<svg width="40" height="40" viewBox="0 0 40 40" fill="none" xmlns="http://www.w3.org/2000/svg">
<path d="M20 0C14.6957 0 9.60859 2.10714 5.85786 5.85786C2.10714 9.60859 0 14.6957 0 20C0 25.3043 2.10714 30.3914 5.85786 34.1421C9.60859 37.8929 14.6957 40 20 40C25.3043 40 30.3914 37.8929 34.1421 34.1421C37.8929 30.3914 40 25.3043 40 20C40 14.6957 37.8929 9.60859 34.1421 5.85786C30.3914 2.10714 25.3043 0 20 0ZM30.275 26.9167L27.0083 26.9583C26.4351 26.9983 25.8675 26.823 25.4167 26.4667C24.2 25.6333 23.0417 23.45 22.15 23.7333C21.2583 24.0167 21.25 25.9833 21.25 25.9833C21.2548 26.2133 21.1846 26.4385 21.05 26.625C20.8619 26.7866 20.6297 26.8882 20.3833 26.9167H18.9083C17.7618 26.894 16.6321 26.6369 15.5887 26.1611C14.5454 25.6852 13.6105 25.0008 12.8417 24.15C9.74167 20.925 7.00833 14.5333 7.00833 14.5333C7.00833 14.5333 6.85 14.1083 7.00833 13.9083C7.16667 13.7083 7.725 13.6667 7.725 13.6667H11.2167C11.4194 13.7053 11.6122 13.7847 11.7833 13.9C11.914 14.0107 12.0167 14.1506 12.0833 14.3083C12.47 15.233 12.9154 16.1321 13.4167 17C14.875 19.5 15.55 20.075 16.05 19.8C16.7667 19.4083 16.55 16.2417 16.55 16.2417C16.5674 15.6653 16.4444 15.0933 16.1917 14.575C15.916 14.2587 15.5267 14.0641 15.1083 14.0333C14.9083 14.0333 15.2333 13.55 15.65 13.3417C16.6365 13.0392 17.6729 12.9345 18.7 13.0333C19.2771 13.0119 19.8545 13.0679 20.4167 13.2C21.6167 13.4917 21.2083 14.6167 21.2083 17.3083C21.2083 18.1417 21.0583 19.3833 21.675 19.8083C21.9417 19.9833 22.6 19.8083 24.2333 17.0583C24.7564 16.1377 25.2104 15.1795 25.5917 14.1917C25.6563 14.0168 25.769 13.8637 25.9167 13.75C26.0633 13.676 26.2286 13.647 26.3917 13.6667H30.0667C30.0667 13.6667 31.175 13.5333 31.35 14.0333C31.525 14.5333 30.9417 15.775 29.4333 17.7833C26.9333 21.0667 26.7 20.7583 28.7417 22.6583C29.7056 23.4503 30.5284 24.3998 31.175 25.4667C31.9833 26.8083 30.275 26.9167 30.275 26.9167Z" fill="url(#paint0_linear)"/>
<defs>
<linearGradient id="paint0_linear" x1="0.234545" y1="26.3265" x2="39.8056" y2="18.9564" gradientUnits="userSpaceOnUse">
<stop stop-color="#FCE556"/>
<stop offset="0.46875" stop-color="#ECB853"/>
<stop offset="1" stop-color="#FCE556"/>
</linearGradient>
</defs>
</svg>
