<svg width="30" height="30" viewBox="0 0 30 30" fill="none" xmlns="http://www.w3.org/2000/svg">
<path d="M3.81866 13.75H6.25C7.63071 13.75 8.75 14.8693 8.75 16.25V17.5C8.75 18.8807 9.86929 20 11.25 20C12.6307 20 13.75 21.1193 13.75 22.5V26.1813M10 4.9194V6.875C10 8.60089 11.3991 10 13.125 10H13.75C15.1307 10 16.25 11.1193 16.25 12.5C16.25 13.8807 17.3693 15 18.75 15C20.1307 15 21.25 13.8807 21.25 12.5C21.25 11.1193 22.3693 10 23.75 10L25.0806 10M18.75 25.6099V22.5C18.75 21.1193 19.8693 20 21.25 20H25.0806M26.25 15C26.25 21.2132 21.2132 26.25 15 26.25C8.7868 26.25 3.75 21.2132 3.75 15C3.75 8.7868 8.7868 3.75 15 3.75C21.2132 3.75 26.25 8.7868 26.25 15Z" stroke="white" stroke-width="2" stroke-linecap="round" stroke-linejoin="round"/>
</svg>
