<svg width="30" height="30" viewBox="0 0 30 30" fill="none" xmlns="http://www.w3.org/2000/svg">
<path fill-rule="evenodd" clip-rule="evenodd" d="M11.25 2.75C11.8023 2.75 12.25 3.19772 12.25 3.75V5.25H15.92C15.9318 5.24979 15.9436 5.24979 15.9554 5.25H18.75C19.3023 5.25 19.75 5.69772 19.75 6.25C19.75 6.80228 19.3023 7.25 18.75 7.25H16.7695C16.0586 10.7126 14.5867 13.8967 12.5364 16.6203C12.7773 16.8966 13.0252 17.1668 13.2797 17.4305C13.6633 17.8278 13.6521 18.4609 13.2548 18.8445C12.8574 19.228 12.2243 19.2169 11.8408 18.8195C11.64 18.6116 11.4431 18.3999 11.25 18.1846C9.26968 20.3927 6.87769 22.2236 4.19504 23.5567C3.70046 23.8025 3.10028 23.6008 2.85449 23.1062C2.60871 22.6117 2.8104 22.0115 3.30497 21.7657C5.85264 20.4996 8.1133 18.7432 9.96367 16.6203C8.81478 15.0941 7.84737 13.423 7.09368 11.6392C6.87874 11.1305 7.1169 10.5438 7.62565 10.3288C8.13439 10.1139 8.72105 10.3521 8.93599 10.8608C9.556 12.3282 10.3345 13.7128 11.25 14.9929C12.8863 12.705 14.0849 10.0832 14.7237 7.25H3.75001C3.19772 7.25 2.75001 6.80228 2.75001 6.25C2.75001 5.69772 3.19772 5.25 3.75001 5.25H10.25V3.75C10.25 3.19772 10.6977 2.75 11.25 2.75ZM20 12.75C20.3788 12.75 20.725 12.964 20.8944 13.3028L25.2604 22.0348C25.2669 22.0471 25.2732 22.0596 25.2791 22.0722L27.1444 25.8028C27.3914 26.2968 27.1912 26.8974 26.6972 27.1444C26.2032 27.3914 25.6026 27.1912 25.3556 26.6972L23.757 23.5H16.243L14.6444 26.6972C14.3974 27.1912 13.7968 27.3914 13.3028 27.1444C12.8088 26.8974 12.6086 26.2968 12.8556 25.8028L14.7209 22.0722C14.7269 22.0596 14.7331 22.0471 14.7396 22.0348L19.1056 13.3028C19.275 12.964 19.6212 12.75 20 12.75ZM17.243 21.5H22.757L20 15.9861L17.243 21.5Z" fill="white"/>
</svg>
