<svg width="30" height="30" viewBox="0 0 30 30" fill="none" xmlns="http://www.w3.org/2000/svg">
<path fill-rule="evenodd" clip-rule="evenodd" d="M15 4.75C9.33908 4.75 4.75 9.33908 4.75 15C4.75 20.6609 9.33908 25.25 15 25.25C20.6609 25.25 25.25 20.6609 25.25 15C25.25 9.33908 20.6609 4.75 15 4.75ZM2.75 15C2.75 8.23451 8.23451 2.75 15 2.75C21.7655 2.75 27.25 8.23451 27.25 15C27.25 21.7655 21.7655 27.25 15 27.25C8.23451 27.25 2.75 21.7655 2.75 15ZM15 7.75C15.5523 7.75 16 8.19772 16 8.75V9.07618C17.2121 9.26326 18.305 9.7895 19.0036 10.5946C19.3656 11.0118 19.3208 11.6433 18.9037 12.0053C18.4866 12.3673 17.855 12.3225 17.493 11.9054C17.2085 11.5775 16.6872 11.2687 16 11.1104L16 14.0759C16.8255 14.203 17.586 14.4866 18.2064 14.9002C19.0638 15.4718 19.75 16.3713 19.75 17.5C19.75 18.6287 19.0638 19.5282 18.2064 20.0998C17.586 20.5134 16.8255 20.797 16 20.9241L16 21.25C16 21.8023 15.5523 22.25 15 22.25C14.4477 22.25 14 21.8023 14 21.25L14 20.9238C12.7879 20.7367 11.695 20.2105 10.9964 19.4054C10.6345 18.9882 10.6792 18.3567 11.0963 17.9947C11.5135 17.6327 12.1451 17.6775 12.507 18.0946C12.7915 18.4225 13.3128 18.7313 14 18.8896L14 15.9241C13.1745 15.797 12.414 15.5134 11.7936 15.0998C10.9362 14.5282 10.25 13.6287 10.25 12.5C10.25 11.3713 10.9362 10.4718 11.7936 9.90018C12.414 9.48663 13.1745 9.20304 14 9.07586V8.75C14 8.19772 14.4477 7.75 15 7.75ZM14 11.1108C13.5658 11.2108 13.1922 11.3715 12.903 11.5643C12.4032 11.8975 12.25 12.248 12.25 12.5C12.25 12.752 12.4032 13.1025 12.903 13.4357C13.1922 13.6285 13.5658 13.7892 14 13.8892L14 11.1108ZM16 16.1108L16 18.8892C16.4343 18.7892 16.8079 18.6285 17.097 18.4357C17.5968 18.1025 17.75 17.752 17.75 17.5C17.75 17.248 17.5968 16.8975 17.097 16.5643C16.8079 16.3716 16.4342 16.2108 16 16.1108Z" fill="white"/>
</svg>
