<svg width="30" height="30" viewBox="0 0 30 30" fill="none" xmlns="http://www.w3.org/2000/svg">
<path fill-rule="evenodd" clip-rule="evenodd" d="M15 6C13.4812 6 12.25 7.23122 12.25 8.75C12.25 10.2688 13.4812 11.5 15 11.5C16.5188 11.5 17.75 10.2688 17.75 8.75C17.75 7.23122 16.5188 6 15 6ZM10.25 8.75C10.25 6.12665 12.3766 4 15 4C17.6234 4 19.75 6.12665 19.75 8.75C19.75 11.3734 17.6234 13.5 15 13.5C12.3766 13.5 10.25 11.3734 10.25 8.75ZM6.25 11C5.42157 11 4.75 11.6716 4.75 12.5C4.75 13.3284 5.42157 14 6.25 14C7.07843 14 7.75 13.3284 7.75 12.5C7.75 11.6716 7.07843 11 6.25 11ZM2.75 12.5C2.75 10.567 4.317 9 6.25 9C8.183 9 9.75 10.567 9.75 12.5C9.75 14.433 8.183 16 6.25 16C4.317 16 2.75 14.433 2.75 12.5ZM23.75 11C22.9216 11 22.25 11.6716 22.25 12.5C22.25 13.3284 22.9216 14 23.75 14C24.5784 14 25.25 13.3284 25.25 12.5C25.25 11.6716 24.5784 11 23.75 11ZM20.25 12.5C20.25 10.567 21.817 9 23.75 9C25.683 9 27.25 10.567 27.25 12.5C27.25 14.433 25.683 16 23.75 16C21.817 16 20.25 14.433 20.25 12.5ZM15 17.25C12.7911 17.25 10.8985 18.6145 10.1237 20.5502C9.88293 21.1517 9.75 21.8091 9.75 22.5V24H20.25V22.5C20.25 21.8091 20.1171 21.1517 19.8763 20.5502C19.1015 18.6145 17.2089 17.25 15 17.25ZM22.25 24H26.5V22.5C26.5 20.9812 25.2688 19.75 23.75 19.75C23.0608 19.75 22.431 20.0028 21.9477 20.4227C22.1445 21.0817 22.25 21.7792 22.25 22.5V24ZM21.0897 18.5645C19.7986 16.5708 17.5544 15.25 15 15.25C12.4456 15.25 10.2014 16.5708 8.91035 18.5645C8.15166 18.0508 7.23583 17.75 6.25 17.75C3.62665 17.75 1.5 19.8766 1.5 22.5V25C1.5 25.5523 1.94772 26 2.5 26H27.5C28.0523 26 28.5 25.5523 28.5 25V22.5C28.5 19.8766 26.3734 17.75 23.75 17.75C22.7642 17.75 21.8483 18.0508 21.0897 18.5645ZM8.05225 20.4227C7.56896 20.0028 6.93919 19.75 6.25 19.75C4.73122 19.75 3.5 20.9812 3.5 22.5V24H7.75V22.5C7.75 21.7792 7.85548 21.0817 8.05225 20.4227Z" fill="white"/>
</svg>
